<?xml version="1.0" encoding="UTF-8" standalone="no"?>
<!DOCTYPE svg PUBLIC "-//W3C//DTD SVG 1.1//EN" "http://www.w3.org/Graphics/SVG/1.1/DTD/svg11.dtd">
<svg width="100%" height="100%" viewBox="0 0 416 404" version="1.1" xmlns="http://www.w3.org/2000/svg" xmlns:xlink="http://www.w3.org/1999/xlink" xml:space="preserve" xmlns:serif="http://www.serif.com/" style="fill-rule:evenodd;clip-rule:evenodd;">
    <g transform="matrix(1,0,0,1,-304.545,-222.476)">
        <path d="M714.81,465.63C711.057,468.857 707.487,471.347 704.1,473.1C697.2,476.66 693.48,478.74 687.84,483.03C684.187,485.817 680.853,488.17 677.84,490.09C671.713,493.997 664.237,498.447 655.41,503.44" style="fill:none;fill-rule:nonzero;stroke:rgb(114,118,117);stroke-width:2px;"/>
    </g>
    <g transform="matrix(1,0,0,1,-304.545,-222.476)">
        <path d="M715.43,446.41C715.917,445.19 716.007,443.81 715.7,442.27C715.32,440.363 715.13,439.03 715.13,438.27C715.123,429.777 715.06,421.36 714.94,413.02C714.893,410.02 714.89,403.357 714.93,393.03C714.97,379.62 714.37,369.78 715.09,360.69C715.091,360.678 715.091,360.667 715.091,360.655C715.091,360.414 714.893,360.215 714.651,360.215C714.593,360.215 714.534,360.227 714.48,360.25L709.86,362.25" style="fill:none;fill-rule:nonzero;stroke:rgb(233,221,105);stroke-width:2px;"/>
    </g>
    <g transform="matrix(1,0,0,1,-304.545,-222.476)">
        <path d="M715.47,261.51C711.91,260.017 709.51,258.85 708.27,258.01C704.277,255.297 700.153,252.813 695.9,250.56C688.607,246.687 684.367,244.413 683.18,243.74C676.39,239.88 670.06,236.76 663.16,232.17C660.84,230.623 657.92,228.927 654.4,227.08C653.127,226.413 652.163,226.44 651.51,227.16" style="fill:none;fill-rule:nonzero;stroke:rgb(114,118,117);stroke-width:2px;"/>
    </g>
    <g transform="matrix(1,0,0,1,-304.545,-222.476)">
        <path d="M310.2,393.28C310.527,412.593 310.343,431.9 309.65,451.2" style="fill:none;fill-rule:nonzero;stroke:rgb(114,118,117);stroke-width:2px;"/>
    </g>
    <g transform="matrix(1,0,0,1,-304.545,-222.476)">
        <path d="M309.93,485.7C309.937,496.627 310.017,507.55 310.17,518.47C310.34,531.24 310.08,543.23 309.83,555.61C309.79,557.7 309.13,559.93 308.99,562.12" style="fill:none;fill-rule:nonzero;stroke:rgb(114,118,117);stroke-width:2px;"/>
    </g>
    <g transform="matrix(1,0,0,1,-304.545,-222.476)">
        <path d="M452.79,518.54L452.7,587.95" style="fill:none;fill-rule:nonzero;stroke:rgb(114,118,117);stroke-width:2px;"/>
    </g>
    <g transform="matrix(1,0,0,1,-304.545,-222.476)">
        <path d="M644.73,583.3L649.51,585.92" style="fill:none;fill-rule:nonzero;stroke:rgb(107,112,111);stroke-width:2px;"/>
    </g>
    <g transform="matrix(1,0,0,1,-304.545,-222.476)">
        <path d="M651.51,227.16C644.117,232.807 636.363,237.843 628.25,242.27C623.22,245.02 619.44,247.5 615.2,250.47C613.627,251.57 610.267,253.47 605.12,256.17C600.653,258.51 596.237,261.1 591.87,263.94C591.59,264.12 591.457,264.38 591.47,264.72C591.583,266.833 591.817,274.93 592.17,289.01C592.63,307.52 592.16,327.89 591.84,344.23C591.835,344.507 591.982,344.762 592.22,344.89C603.647,351.103 610.087,354.607 611.54,355.4C611.607,355.433 616.77,358.1 627.03,363.4C635.297,367.673 643.247,372.513 650.88,377.92C651.401,378.298 652.126,378.252 652.6,377.81C653.5,376.977 654.16,376.097 654.58,375.17" style="fill:none;fill-rule:nonzero;stroke:rgb(118,126,127);stroke-width:2px;"/>
    </g>
    <g transform="matrix(1,0,0,1,-304.545,-222.476)">
        <path d="M654.58,375.17C656.487,373.943 658.26,372.88 659.9,371.98C666.32,368.46 673.953,363.9 682.8,358.3C685.153,356.813 688.55,354.517 692.99,351.41C699.19,347.08 706.18,343.83 713,340.33" style="fill:none;fill-rule:nonzero;stroke:rgb(170,179,180);stroke-width:2px;"/>
    </g>
    <g transform="matrix(1,0,0,1,-304.545,-222.476)">
        <path d="M713,340.33C713.673,340.157 714.203,339.93 714.59,339.65C714.863,339.45 715,339.18 715,338.84L714.81,271.46" style="fill:none;fill-rule:nonzero;stroke:rgb(147,155,156);stroke-width:2px;"/>
    </g>
    <g transform="matrix(1,0,0,1,-304.545,-222.476)">
        <path d="M714.81,271.46L715.47,261.51" style="fill:none;fill-rule:nonzero;stroke:rgb(118,126,127);stroke-width:2px;"/>
    </g>
    <g transform="matrix(1,0,0,1,-304.545,-222.476)">
        <path d="M709.86,362.25C705.293,364.85 700.693,367.29 696.06,369.57C695.207,369.99 693.187,371.347 690,373.64C683.76,378.12 676.53,382.5 670.81,386.06C667.657,388.027 662.04,390.843 653.96,394.51C652.12,395.35 650.72,395.08 648.98,394.38C644.253,392.46 639.307,390.22 634.14,387.66C631.13,386.17 627.51,385.05 624.19,383.73C619.36,381.81 613.48,378 610.36,376.16C608.767,375.227 607.527,374.62 606.64,374.34C606.633,374.339 606.626,374.336 606.62,374.332C606.598,374.315 606.597,374.28 606.616,374.254C606.62,374.249 606.625,374.244 606.63,374.24C606.71,374.18 606.76,374.107 606.78,374.02C606.787,373.973 606.773,373.94 606.74,373.92L603.35,371.44" style="fill:none;fill-rule:nonzero;stroke:rgb(237,229,115);stroke-width:2px;"/>
    </g>
    <g transform="matrix(1,0,0,1,-304.545,-222.476)">
        <path d="M603.35,371.44C602.863,371.067 602.38,370.817 601.9,370.69C601.56,370.603 601.27,370.69 601.03,370.95C600.623,371.39 600.547,371.997 600.8,372.77" style="fill:none;fill-rule:nonzero;stroke:rgb(141,148,148);stroke-width:2px;"/>
    </g>
    <g transform="matrix(1,0,0,1,-304.545,-222.476)">
        <path d="M600.8,372.77C600.48,375.83 600.387,378.907 600.52,382C600.61,384.1 600.17,386.4 600.17,388.25C600.09,406.377 600.057,426.12 600.07,447.48C600.07,450.26 599.7,452.71 599.11,455.6C598.959,456.331 599.327,457.077 600,457.4C601.91,458.3 603.2,459.59 605.65,460.88C614.62,465.61 624.77,470.24 632.63,475.03C635.51,476.783 640.74,479.963 648.32,484.57C649.009,484.989 649.872,484.996 650.56,484.59L715.43,446.41" style="fill:none;fill-rule:nonzero;stroke:rgb(237,229,115);stroke-width:2px;"/>
    </g>
    <g transform="matrix(1,0,0,1,-304.545,-222.476)">
        <path d="M655.41,503.44C653.903,504.34 652.44,504.89 651.02,505.09C650.687,505.137 650.377,505.077 650.09,504.91C646.123,502.617 642.113,500.4 638.06,498.26C617.5,487.407 604.423,480.74 598.83,478.26C595.783,476.913 593.873,476.11 593.1,475.85C593.079,475.843 593.059,475.838 593.037,475.833C592.609,475.737 592.165,476.068 592.054,476.566C592.048,476.59 592.044,476.615 592.04,476.64C591.907,477.547 591.913,480.627 592.06,485.88C592.293,494.213 592.403,513.337 592.39,543.25C592.39,545.317 592.237,549.233 591.93,555C591.917,555.167 591.81,555.47 591.61,555.91C591.45,556.257 591.557,556.453 591.93,556.5C593.517,556.707 594.713,556.98 595.52,557.32C602.593,560.3 612.05,564.56 623.89,570.1C628.243,572.133 635.19,576.533 644.73,583.3" style="fill:none;fill-rule:nonzero;stroke:rgb(118,126,127);stroke-width:2px;"/>
    </g>
    <g transform="matrix(1,0,0,1,-304.545,-222.476)">
        <path d="M452.7,587.95C454.287,588.303 455.883,588.897 457.49,589.73C470.05,596.26 478.08,599.97 488.74,606.38C496.79,611.23 506.1,616.18 514.85,621.29C515.143,621.463 515.453,621.517 515.78,621.45C517.073,621.183 517.867,620.387 518.16,619.06" style="fill:none;fill-rule:nonzero;stroke:rgb(118,126,127);stroke-width:2px;"/>
    </g>
    <g transform="matrix(1,0,0,1,-304.545,-222.476)">
        <path d="M518.16,619.06C531.2,611.16 544.43,602.87 557.26,595.94C567.42,590.447 574.523,586.587 578.57,584.36C579.183,584.027 579.363,583.533 579.11,582.88C577.34,578.32 577.9,573.43 577.51,566.08C576.95,555.56 577.49,545.57 577.2,535.32C577.12,532.533 577.2,527.82 577.44,521.18C577.62,516.333 577.643,511.617 577.51,507.03" style="fill:none;fill-rule:nonzero;stroke:rgb(147,155,156);stroke-width:2px;"/>
    </g>
    <g transform="matrix(1,0,0,1,-304.545,-222.476)">
        <path d="M577.51,507.03L577.02,495.54C577.016,495.459 577,495.38 576.972,495.304C576.825,494.914 576.387,494.712 576.002,494.857C575.925,494.886 575.853,494.927 575.79,494.98C565.47,503.36 552.6,511.58 535.35,522.94C528.79,527.26 523,529.97 516.86,533.74C516.658,533.862 516.402,533.859 516.2,533.73C511.147,530.49 508.073,528.583 506.98,528.01C500.07,524.38 494.33,521.82 488.16,517.89C478.287,511.597 469.397,506.18 461.49,501.64C460.61,501.133 458.66,499.767 455.64,497.54C454.773,496.9 454.173,496.507 453.84,496.36C453.705,496.299 453.558,496.268 453.41,496.268C452.833,496.268 452.36,496.742 452.36,497.318C452.36,497.328 452.36,497.339 452.36,497.35L452.79,518.54" style="fill:none;fill-rule:nonzero;stroke:rgb(118,126,127);stroke-width:2px;"/>
    </g>
    <g transform="matrix(1,0,0,1,-304.545,-222.476)">
        <path d="M308.99,562.12C318.517,565.807 327.667,570.153 336.44,575.16C345.393,580.267 349.893,582.833 349.94,582.86C356.913,586.693 364.36,590.907 372.28,595.5C373.1,595.98 374.173,596.403 375.5,596.77C375.813,596.857 376.103,596.81 376.37,596.63C381.383,593.143 386.093,590.323 390.5,588.17C393.467,586.723 396.527,584.907 399.68,582.72C411.493,574.547 423.973,567.457 437.12,561.45C437.773,561.148 438.158,560.454 438.07,559.74C436.67,548.2 437.07,541.95 437.08,524.87C437.087,518.997 437.333,512.427 437.82,505.16C438.4,496.58 438.437,488.09 437.93,479.69C437.926,479.63 437.919,479.571 437.909,479.512C437.76,478.686 436.954,478.129 436.122,478.279C436.064,478.289 436.007,478.303 435.95,478.32C434.343,478.807 432.757,479.507 431.19,480.42C430.483,480.827 422.77,485.263 408.05,493.73C402.94,496.68 396.62,500.99 390.25,504.36C384.55,507.38 380.3,510.08 375.61,513.45C375.04,513.853 374.286,513.896 373.67,513.56L310.81,479.04C310.45,478.84 310.26,478.947 310.24,479.36L309.93,485.7" style="fill:none;fill-rule:nonzero;stroke:rgb(118,126,127);stroke-width:2px;"/>
    </g>
    <g transform="matrix(1,0,0,1,-304.545,-222.476)">
        <path d="M309.65,451.2L308.68,456.82C308.627,457.127 308.747,457.333 309.04,457.44C313.207,458.98 317.853,461.187 322.98,464.06C350.773,479.64 366.113,488.323 369,490.11C371.233,491.497 373.337,493.01 375.31,494.65C375.55,494.846 375.903,494.824 376.11,494.6C376.71,493.96 377.407,493.333 378.2,492.72C382.613,489.32 392.967,482.68 409.26,472.8C411.7,471.32 414.043,470.167 416.29,469.34C418.003,468.707 419.333,468.133 420.28,467.62C424.18,465.52 425.54,464.8 430.58,464.39C430.907,464.37 431.07,464.197 431.07,463.87C431.077,462.497 430.863,460.757 430.43,458.65C430.11,457.07 430.16,455.96 430.19,454.01C430.303,444.623 430.567,420.71 430.98,382.27C431.01,379.52 431.71,375.92 430.67,372.68C430.563,372.36 430.37,372.297 430.09,372.49C428.537,373.583 423.967,376.3 416.38,380.64C401.847,388.96 388.313,397.267 375.78,405.56C375.272,405.891 374.72,405.976 374.36,405.78L310.82,370.89C309.807,370.337 309.503,370.65 309.91,371.83C309.983,372.05 310.02,372.543 310.02,373.31C310.027,379.977 310.087,386.633 310.2,393.28" style="fill:none;fill-rule:nonzero;stroke:rgb(118,126,127);stroke-width:2px;"/>
    </g>
    <g transform="matrix(1,0,0,1,-304.545,-222.476)">
        <path d="M431.8,350.72C434.207,348.747 436.887,347.157 439.84,345.95C440.147,345.823 440.277,345.593 440.23,345.26C440.09,344.327 439.737,343.397 439.17,342.47" style="fill:none;fill-rule:nonzero;stroke:rgb(129,137,138);stroke-width:2px;"/>
    </g>
    <g transform="matrix(1,0,0,1,-304.545,-222.476)">
        <path d="M439.17,342.47C438.443,333.743 438.067,325.003 438.04,316.25C437.993,302.29 438.013,288.327 438.1,274.36C438.11,272.39 438.53,271.32 439.15,268.9C439.237,268.573 439.143,268.31 438.87,268.11C436.25,266.237 433.13,264.287 429.51,262.26C418.423,256.047 408.59,250.623 400.01,245.99C396.177,243.923 387.51,238.457 374.01,229.59C373.73,229.41 373.463,229.427 373.21,229.64C367.323,234.56 362.48,238.083 358.68,240.21C345,247.85 331.783,255.843 319.03,264.19C316.5,265.84 313.42,267.44 310.52,268.73C310.063,268.934 309.826,269.451 309.97,269.93C310.75,272.537 311.13,275.143 311.11,277.75C310.957,303.417 310.67,323 310.25,336.5C310.13,340.22 310.39,345.25 308.92,349C308.793,349.327 308.897,349.54 309.23,349.64C317.72,352.19 325.74,356.87 334.32,361.87C348.5,370.13 361.79,377.37 374.97,385.42C375.272,385.607 375.672,385.557 375.93,385.3C380.08,381.11 385.4,378.5 390.4,375.44C394.393,372.993 397.403,371.067 399.43,369.66C400.25,369.087 402.907,367.63 407.4,365.29C409.613,364.143 412.213,362.61 415.2,360.69C418.04,358.863 422.41,356.407 428.31,353.32C428.85,353.033 430.013,352.167 431.8,350.72" style="fill:none;fill-rule:nonzero;stroke:rgb(118,126,127);stroke-width:2px;"/>
    </g>
    <g transform="matrix(1,0,0,1,-304.545,-222.476)">
        <path d="M439.17,342.47C438.817,342.337 438.49,342.327 438.19,342.44C437.877,342.56 437.747,342.453 437.8,342.12C438.12,340.02 437.19,338.61 436.98,336.53C436.913,335.937 436.837,334.43 436.75,332.01C436.43,323.117 436.463,307.88 436.85,286.3C436.93,281.687 436.743,277.15 436.29,272.69C436.287,272.657 436.281,272.625 436.273,272.594C436.182,272.232 435.814,272.008 435.457,272.097C435.424,272.106 435.392,272.117 435.36,272.13C424.133,276.87 413.363,282.587 403.05,289.28" style="fill:none;fill-rule:nonzero;stroke:rgb(26,34,35);stroke-width:2px;"/>
    </g>
    <g transform="matrix(1,0,0,1,-304.545,-222.476)">
        <path d="M403.05,289.28C393.943,293.513 385.273,298.52 377.04,304.3C376.287,304.827 375.903,305.483 375.89,306.27C375.7,321.17 374.72,339.97 375.98,357.23C376.62,366.02 376.52,372.83 376.27,380.44C376.257,380.833 376.42,380.93 376.76,380.73C384.213,376.437 391.917,371.807 399.87,366.84C402.58,365.14 405.38,363.93 408.3,362.74" style="fill:none;fill-rule:nonzero;stroke:rgb(38,44,44);stroke-width:2px;"/>
    </g>
    <g transform="matrix(1,0,0,1,-304.545,-222.476)">
        <path d="M408.3,362.74C409.06,362.147 409.86,361.66 410.7,361.28C411.887,360.74 412.71,360.313 413.17,360C414.78,358.92 416.73,357.34 418.47,356.57C420.67,355.603 422.493,354.42 423.94,353.02C424.727,352.247 425.783,351.677 427.11,351.31C427.997,351.057 429.107,350.513 430.44,349.68C430.469,349.662 430.499,349.645 430.53,349.629C431.025,349.381 431.623,349.557 431.854,350.018C431.867,350.045 431.879,350.072 431.89,350.1C431.91,350.153 431.88,350.36 431.8,350.72" style="fill:none;fill-rule:nonzero;stroke:rgb(26,34,35);stroke-width:2px;"/>
    </g>
    <g transform="matrix(1,0,0,1,-304.545,-222.476)">
        <path d="M408.3,362.74C407.94,358.593 407.757,355.99 407.75,354.93C407.73,337.33 406.16,323.29 403.59,304.8C403.117,301.373 402.937,296.2 403.05,289.28" style="fill:none;fill-rule:nonzero;stroke:rgb(49,56,56);stroke-width:2px;"/>
    </g>
    <g transform="matrix(1,0,0,1,-304.545,-222.476)">
        <path d="M449.45,368.56L454.92,371.03" style="fill:none;fill-rule:nonzero;stroke:rgb(147,155,156);stroke-width:2px;"/>
    </g>
    <g transform="matrix(1,0,0,1,-304.545,-222.476)">
        <path d="M454.92,371.03L470.9,379.16" style="fill:none;fill-rule:nonzero;stroke:rgb(129,137,138);stroke-width:2px;"/>
    </g>
    <g transform="matrix(1,0,0,1,-304.545,-222.476)">
        <path d="M470.9,379.16C474.953,381.393 479.007,383.753 483.06,386.24C493.39,392.57 503.59,397.65 513.37,403.64C513.883,403.953 514.753,404.4 515.98,404.98C517.56,405.72 518.36,405.27 519.71,404.45C527.63,399.68 534.62,394.82 543.22,390.52C552.22,386.03 559.03,381.15 568.98,374.69C572.53,372.38 578.6,367.91 583.93,364.69C584.543,364.317 584.997,363.89 585.29,363.41" style="fill:none;fill-rule:nonzero;stroke:rgb(147,155,156);stroke-width:2px;"/>
    </g>
    <g transform="matrix(1,0,0,1,-304.545,-222.476)">
        <path d="M585.29,363.41L586.48,362.23C586.643,362.069 586.734,361.849 586.734,361.619C586.734,361.323 586.581,361.047 586.33,360.89C567.897,349.25 549.787,337.38 532,325.28C529.06,323.287 523.4,320.093 515.02,315.7C514.72,315.54 514.457,315.587 514.23,315.84C512.637,317.68 510.53,319.453 507.91,321.16C498.15,327.53 488.99,334.28 480.36,339.93C469.847,346.81 461.103,352.477 454.13,356.93C450.36,359.33 445.92,361.44 442.11,363.49C441.737,363.683 441.73,363.89 442.09,364.11L449.45,368.56" style="fill:none;fill-rule:nonzero;stroke:rgb(118,126,127);stroke-width:2px;"/>
    </g>
    <g transform="matrix(1,0,0,1,-304.545,-222.476)">
        <path d="M585.29,363.41C584.663,361.823 583.91,360.757 583.03,360.21C575.88,355.76 568.85,350.37 562.43,346.3C550.35,338.633 539.917,331.89 531.13,326.07C526.99,323.323 522.873,321.063 518.78,319.29C516.753,318.41 514.713,318.597 512.66,319.85C508.78,322.223 504.973,324.857 501.24,327.75C500.253,328.517 499.037,329.253 497.59,329.96C495.71,330.88 494.47,331.593 493.87,332.1C492.343,333.393 490.3,334.813 487.74,336.36C486.447,337.147 483.983,338.837 480.35,341.43C477.883,343.19 475.36,344.79 472.78,346.23C466.68,349.623 463.163,351.71 462.23,352.49C460.17,354.197 455.63,357.737 448.61,363.11C446.883,364.437 447.163,366.253 449.45,368.56" style="fill:none;fill-rule:nonzero;stroke:rgb(43,51,52);stroke-width:2px;"/>
    </g>
    <g transform="matrix(1,0,0,1,-304.545,-222.476)">
        <path d="M470.9,379.16C471.187,378.213 470.51,377.387 468.87,376.68C467.783,376.213 467.207,375.963 467.14,375.93C463.213,374.05 459.14,372.417 454.92,371.03" style="fill:none;fill-rule:nonzero;stroke:rgb(55,63,64);stroke-width:2px;"/>
    </g>
    <g transform="matrix(1,0,0,1,-304.545,-222.476)">
        <path d="M517.81,425.02C504.137,418.187 494.38,413.077 488.54,409.69C483.827,406.957 476.257,402.813 465.83,397.26C458.83,393.533 452.783,389.9 447.69,386.36C447.61,386.306 447.516,386.277 447.42,386.277C447.159,386.277 446.944,386.489 446.94,386.75C446.84,399.677 447.087,416.593 447.68,437.5C447.887,444.78 447.603,456.11 446.83,471.49C446.817,471.823 446.953,472.077 447.24,472.25C449.727,473.763 453.947,476.157 459.9,479.43C466.47,483.04 472.61,487.95 479.15,491.62C488.48,496.86 496.48,501.67 505.07,506.25C508.623,508.15 511.93,510.38 514.99,512.94C515.196,513.115 515.457,513.211 515.727,513.211C516.092,513.211 516.436,513.035 516.65,512.74C518.177,510.667 520.53,508.983 523.71,507.69" style="fill:none;fill-rule:nonzero;stroke:rgb(118,126,127);stroke-width:2px;"/>
    </g>
    <g transform="matrix(1,0,0,1,-304.545,-222.476)">
        <path d="M523.71,507.69C532.03,503.45 537.42,500.513 539.88,498.88C545.78,494.96 553.19,490.11 560.12,484.83C567.55,479.16 572.94,476.46 582.98,471.5C584.64,470.687 586.043,469.61 587.19,468.27C587.41,468.017 587.503,467.72 587.47,467.38C586.457,457.4 585.947,446.043 585.94,433.31C585.94,420.01 584.94,406.74 584.92,392.75C584.92,391.797 584.623,389.397 584.03,385.55C583.977,385.223 583.82,385.163 583.56,385.37C580.447,387.803 577.953,389.55 576.08,390.61C564.547,397.123 554.207,403.39 545.06,409.41C537.8,414.18 531.16,417.61 523.83,421.04C521.89,421.947 519.883,423.273 517.81,425.02" style="fill:none;fill-rule:nonzero;stroke:rgb(170,179,180);stroke-width:2px;"/>
    </g>
    <g transform="matrix(1,0,0,1,-304.545,-222.476)">
        <path d="M523.71,507.69C522.19,507.543 520.703,507.993 519.25,509.04C518.963,509.247 518.807,509.173 518.78,508.82C518.307,501.48 518.077,494.043 518.09,486.51C518.123,471.117 517.953,456.5 517.58,442.66C517.507,440.033 517.523,437.093 517.63,433.84C517.737,430.68 517.797,427.74 517.81,425.02" style="fill:none;fill-rule:nonzero;stroke:rgb(66,75,76);stroke-width:2px;"/>
    </g>
    <g transform="matrix(1,0,0,1,-304.545,-222.476)">
        <path d="M714.81,271.46C714.53,271.587 714.38,271.85 714.36,272.25C714.34,272.59 714.27,272.6 714.15,272.28C714.097,272.14 714.077,271.987 714.09,271.82C714.137,271.447 714.157,271.227 714.15,271.16C714.043,269.333 713.923,267.32 713.79,265.12C713.772,264.871 713.561,264.675 713.311,264.675C713.197,264.675 713.087,264.716 713,264.79C711.5,266.083 710.52,266.37 710.06,265.65" style="fill:none;fill-rule:nonzero;stroke:rgb(43,51,52);stroke-width:2px;"/>
    </g>
    <g transform="matrix(1,0,0,1,-304.545,-222.476)">
        <path d="M710.06,265.65L713.04,263.34C713.076,263.311 713.11,263.279 713.14,263.244C713.411,262.934 713.382,262.459 713.076,262.193C713.04,262.161 713.001,262.134 712.96,262.11L654.9,228.6C653.841,227.985 652.525,228.001 651.48,228.64C644.42,232.95 637.78,237.64 630.15,241.88C624.03,245.287 619.017,248.373 615.11,251.14C613.183,252.5 611.143,253.72 608.99,254.8C603.56,257.53 598.25,260.65 593.46,263.99C593.16,264.197 593.137,264.43 593.39,264.69C597.44,268.94 601.37,270.08 608.12,272.86C612.12,274.51 617.45,278.42 622.07,280.74C628.223,283.82 633.683,286.673 638.45,289.3C640.023,290.167 641.617,290.91 643.23,291.53" style="fill:none;fill-rule:nonzero;stroke:rgb(66,75,76);stroke-width:2px;"/>
    </g>
    <g transform="matrix(1,0,0,1,-304.545,-222.476)">
        <path d="M643.23,291.53L653.71,296.5" style="fill:none;fill-rule:nonzero;stroke:rgb(96,101,101);stroke-width:2px;"/>
    </g>
    <g transform="matrix(1,0,0,1,-304.545,-222.476)">
        <path d="M653.71,296.5C654.243,307.753 654.313,320.333 653.92,334.24C653.72,341.207 653.773,349.107 654.08,357.94C654.107,358.64 654.07,361.51 653.97,366.55C653.91,369.43 654.113,372.303 654.58,375.17" style="fill:none;fill-rule:nonzero;stroke:rgb(66,75,76);stroke-width:2px;"/>
    </g>
    <g transform="matrix(1,0,0,1,-304.545,-222.476)">
        <path d="M710.06,265.65C708.38,265.797 706.777,266.677 705.25,268.29" style="fill:none;fill-rule:nonzero;stroke:rgb(95,104,105);stroke-width:2px;"/>
    </g>
    <g transform="matrix(1,0,0,1,-304.545,-222.476)">
        <path d="M705.25,268.29C700.343,270.423 695.623,272.88 691.09,275.66C684.95,279.42 680.85,281.857 678.79,282.97C672.27,286.503 665.827,290.1 659.46,293.76" style="fill:none;fill-rule:nonzero;stroke:rgb(90,97,97);stroke-width:2px;"/>
    </g>
    <g transform="matrix(1,0,0,1,-304.545,-222.476)">
        <path d="M659.46,293.76C655.513,294.087 652.59,293.957 650.69,293.37C648.25,292.617 645.763,292.003 643.23,291.53" style="fill:none;fill-rule:nonzero;stroke:rgb(148,154,154);stroke-width:2px;"/>
    </g>
    <g transform="matrix(1,0,0,1,-304.545,-222.476)">
        <path d="M325.46,260.92C320.787,263.64 316.983,266.357 314.05,269.07C313.786,269.314 313.636,269.657 313.636,270.017C313.636,270.39 313.798,270.745 314.08,270.99C316.193,272.837 318.457,274.357 320.87,275.55C336.67,283.357 351.263,290.9 364.65,298.18C367.723,299.853 370.84,301.72 374,303.78C374.664,304.216 375.528,304.208 376.18,303.76C378.82,301.95 382.68,299.02 385.63,297.5C390.54,294.96 394.73,292.29 400.67,289.1C412.45,282.77 423.06,276.56 433.68,270.97C434.61,270.48 436.23,270.14 437.12,269.25C437.245,269.125 437.315,268.955 437.315,268.778C437.315,268.547 437.195,268.332 437,268.21C434.12,266.41 431.25,265.1 428.17,263.17C420.71,258.48 411.61,253.92 405.71,250.53C398.51,246.39 385.11,238.96 375.28,231.89C374.233,231.137 373.233,231.197 372.28,232.07C370.527,233.683 368.72,235.263 366.86,236.81C365.507,237.93 363.497,239.22 360.83,240.68C355.65,243.52 345.95,248.947 331.73,256.96C329.7,258.11 327.87,259.52 325.46,260.92" style="fill:none;fill-rule:nonzero;stroke:rgb(38,44,44);stroke-width:2px;"/>
    </g>
    <g transform="matrix(1,0,0,1,-304.545,-222.476)">
        <path d="M713,340.33C713.513,337.75 713.71,334.88 713.59,331.72C713.143,320.013 712.927,304.76 712.94,285.96C712.94,281.8 712.327,275.51 711.1,267.09C711.053,266.763 710.883,266.673 710.59,266.82L706.47,268.8" style="fill:none;fill-rule:nonzero;stroke:rgb(95,104,105);stroke-width:2px;"/>
    </g>
    <g transform="matrix(1,0,0,1,-304.545,-222.476)">
        <path d="M706.47,268.8C706.43,268.14 706.023,267.97 705.25,268.29" style="fill:none;fill-rule:nonzero;stroke:rgb(67,73,73);stroke-width:2px;"/>
    </g>
    <g transform="matrix(1,0,0,1,-304.545,-222.476)">
        <path d="M653.71,296.5L656.94,295.22" style="fill:none;fill-rule:nonzero;stroke:rgb(148,154,154);stroke-width:2px;"/>
    </g>
    <g transform="matrix(1,0,0,1,-304.545,-222.476)">
        <path d="M656.94,295.22C656.713,295.567 657.037,295.717 657.91,295.67C658.23,295.65 658.543,295.55 658.85,295.37C665.483,291.423 672.213,287.65 679.04,284.05C680.593,283.23 684.117,281.193 689.61,277.94C692.663,276.127 696.26,274.203 700.4,272.17C701.347,271.703 703.37,270.58 706.47,268.8" style="fill:none;fill-rule:nonzero;stroke:rgb(90,97,97);stroke-width:2px;"/>
    </g>
    <g transform="matrix(1,0,0,1,-304.545,-222.476)">
        <path d="M656.94,295.22L659.46,293.76" style="fill:none;fill-rule:nonzero;stroke:rgb(119,123,122);stroke-width:2px;"/>
    </g>
    <g transform="matrix(1,0,0,1,-304.545,-222.476)">
        <path d="M600.8,372.77C601.74,372.663 602.59,372.22 603.35,371.44" style="fill:none;fill-rule:nonzero;stroke:rgb(157,147,33);stroke-width:2px;"/>
    </g>
    <g transform="matrix(1,0,0,1,-304.545,-222.476)">
        <path d="M377.67,490.11C378.58,487.09 381.23,487.08 383.56,485.99C385.52,485.083 386.827,484.46 387.48,484.12C388.99,483.34 390.77,481.83 392.21,481.2C395.09,479.92 396.76,478.16 399.57,476.63C400.543,476.097 401.84,475.327 403.46,474.32C408.513,471.18 411.43,469.467 412.21,469.18C416.017,467.813 419.923,466.2 423.93,464.34C425.56,463.59 427.25,463.54 428.94,463.08C429.427,462.945 429.739,462.46 429.66,461.96C429.35,460.13 428.93,457.84 428.91,455.67C428.723,438.997 428.647,427.96 428.68,422.56C428.707,417.507 428.86,412.143 429.14,406.47C429.367,401.797 429.567,396.43 429.74,390.37C429.873,385.963 429.513,382.453 428.66,379.84C428.56,379.527 428.34,379.377 428,379.39C423.67,379.63 420.31,381.63 415.71,383.58C413.55,384.493 411.483,385.61 409.51,386.93C406.317,389.063 403.043,391.057 399.69,392.91C394.43,395.803 391.087,397.67 389.66,398.51C384.873,401.33 380.087,404.06 375.3,406.7C374.824,406.96 374.55,407.487 374.61,408.03C375.09,412.437 375.323,415.78 375.31,418.06C375.223,429.927 375.22,442.77 375.3,456.59C375.34,464.29 376.47,472.57 376.02,480.49C375.83,483.72 376.79,486.71 376.63,489.5C376.617,489.73 376.738,489.949 376.94,490.06L377.31,490.26C377.347,490.28 377.388,490.291 377.43,490.291C377.541,490.291 377.639,490.217 377.67,490.11" style="fill:none;fill-rule:nonzero;stroke:rgb(26,34,35);stroke-width:2px;"/>
    </g>
    <g transform="matrix(1,0,0,1,-304.545,-222.476)">
        <path d="M714.81,465.63C714.47,492.17 714.66,518.68 715.38,545.16C715.387,545.5 715.273,545.793 715.04,546.04C714.46,546.627 713.697,547.007 712.75,547.18" style="fill:none;fill-rule:nonzero;stroke:rgb(118,126,127);stroke-width:2px;"/>
    </g>
    <g transform="matrix(1,0,0,1,-304.545,-222.476)">
        <path d="M712.75,547.18L714.03,545.39C714.217,545.123 714.307,544.827 714.3,544.5C713.67,522.48 713.66,501.14 713.65,477.49C713.65,476.79 713.36,475.92 713.4,475.32C713.44,474.727 713.363,474.21 713.17,473.77C712.603,472.483 712.64,470.94 713.28,469.14C713.487,468.573 713.343,468.46 712.85,468.8C708.81,471.6 704.43,474.103 699.71,476.31C691.82,480 684.94,486.65 679.27,490.03C670.797,495.09 662.487,500.133 654.34,505.16C653.58,505.633 653.2,506.31 653.2,507.19L653.47,580.25C653.47,580.25 653.47,580.251 653.47,580.251C653.47,580.273 653.488,580.291 653.51,580.291C653.513,580.291 653.517,580.291 653.52,580.29C654.453,580.083 655.31,580.083 656.09,580.29" style="fill:none;fill-rule:nonzero;stroke:rgb(66,75,76);stroke-width:2px;"/>
    </g>
    <g transform="matrix(1,0,0,1,-304.545,-222.476)">
        <path d="M656.09,580.29C654.85,580.763 654.113,581.21 653.88,581.63C652.447,584.237 650.99,585.667 649.51,585.92" style="fill:none;fill-rule:nonzero;stroke:rgb(118,126,127);stroke-width:2px;"/>
    </g>
    <g transform="matrix(1,0,0,1,-304.545,-222.476)">
        <path d="M656.09,580.29C668.32,573.23 680.48,566.05 692.51,558.62C698.537,554.893 704.75,551.493 711.15,548.42C712.05,547.987 712.583,547.573 712.75,547.18" style="fill:none;fill-rule:nonzero;stroke:rgb(170,179,180);stroke-width:2px;"/>
    </g>
    <g transform="matrix(1,0,0,1,-304.545,-222.476)">
        <path d="M433.78,560.8C434.747,560.86 435.443,560.553 435.87,559.88C436.057,559.58 436.157,559.253 436.17,558.9C436.28,555.93 435.61,553.06 435.62,549.65C435.687,532.91 435.813,520.783 436,513.27C436.08,509.983 436.37,506.06 436.87,501.5C437.09,499.46 437.127,496.13 436.98,491.51C436.88,488.15 435.937,485.72 434.15,484.22C433.87,483.98 433.55,483.903 433.19,483.99C427.39,485.297 423.23,486.883 420.71,488.75C419.73,489.477 417.383,491.137 413.67,493.73C412.163,494.783 410.26,495.73 407.96,496.57C404.03,498.01 401.01,500.87 397.56,502.65C393.087,504.97 387.833,508.017 381.8,511.79C379.68,513.12 377.44,513.93 375.49,515.33C375.21,515.53 375.09,515.803 375.13,516.15C375.823,522.01 376.143,526.377 376.09,529.25C375.737,548.983 375.88,569.437 376.52,590.61C376.541,591.339 377.141,591.93 377.87,591.94C378.68,591.95 379.3,592.01 380.15,591.58C382.55,590.373 384.947,589.157 387.34,587.93C388.61,587.27 389.69,586.05 391.27,585.55C393.04,584.99 394.71,584.38 396.17,582.96C397.77,581.42 400.13,580.63 401.61,579.71C405.823,577.083 409.97,574.503 414.05,571.97C416.457,570.477 418.957,569.087 421.55,567.8C425.923,565.633 428.487,564.36 429.24,563.98C430.74,563.24 431.58,562.15 432.91,561.08C433.154,560.881 433.464,560.781 433.78,560.8" style="fill:none;fill-rule:nonzero;stroke:rgb(26,34,35);stroke-width:2px;"/>
    </g>
    <g transform="matrix(1,0,0,1,-304.545,-222.476)">
        <path d="M577.51,507.03L575.32,500.38C575.227,500.087 575.04,500 574.76,500.12C570.127,502.1 566.143,504.26 562.81,506.6C556.5,511.03 548.07,516.05 542.66,519.78C535.32,524.84 527.47,530.88 518.96,534.62C518.296,534.912 517.883,535.59 517.93,536.31C518.037,537.943 518.087,539.6 518.08,541.28C518.053,553.587 517.903,568.16 517.63,585C517.443,596.327 517.62,607.68 518.16,619.06" style="fill:none;fill-rule:nonzero;stroke:rgb(43,51,52);stroke-width:2px;"/>
    </g>
    <g transform="matrix(1,0,0,1,-304.545,-222.476)">
        <path d="M715.47,261.51L714.81,271.46C714.53,271.587 714.38,271.85 714.36,272.25C714.34,272.59 714.27,272.6 714.15,272.28C714.097,272.14 714.077,271.987 714.09,271.82C714.137,271.447 714.157,271.227 714.15,271.16C714.043,269.333 713.923,267.32 713.79,265.12C713.772,264.871 713.561,264.675 713.311,264.675C713.197,264.675 713.087,264.716 713,264.79C711.5,266.083 710.52,266.37 710.06,265.65L713.04,263.34C713.076,263.311 713.11,263.279 713.14,263.244C713.411,262.934 713.382,262.459 713.076,262.193C713.04,262.161 713.001,262.134 712.96,262.11L654.9,228.6C653.841,227.985 652.525,228.001 651.48,228.64C644.42,232.95 637.78,237.64 630.15,241.88C624.03,245.287 619.017,248.373 615.11,251.14C613.183,252.5 611.143,253.72 608.99,254.8C603.56,257.53 598.25,260.65 593.46,263.99C593.16,264.197 593.137,264.43 593.39,264.69C597.44,268.94 601.37,270.08 608.12,272.86C612.12,274.51 617.45,278.42 622.07,280.74C628.223,283.82 633.683,286.673 638.45,289.3C640.023,290.167 641.617,290.91 643.23,291.53L653.71,296.5C654.243,307.753 654.313,320.333 653.92,334.24C653.72,341.207 653.773,349.107 654.08,357.94C654.107,358.64 654.07,361.51 653.97,366.55C653.91,369.43 654.113,372.303 654.58,375.17C654.16,376.097 653.5,376.977 652.6,377.81C652.126,378.252 651.401,378.298 650.88,377.92C643.247,372.513 635.297,367.673 627.03,363.4C616.77,358.1 611.607,355.433 611.54,355.4C610.087,354.607 603.647,351.103 592.22,344.89C591.982,344.762 591.835,344.507 591.84,344.23C592.16,327.89 592.63,307.52 592.17,289.01C591.817,274.93 591.583,266.833 591.47,264.72C591.457,264.38 591.59,264.12 591.87,263.94C596.237,261.1 600.653,258.51 605.12,256.17C610.267,253.47 613.627,251.57 615.2,250.47C619.44,247.5 623.22,245.02 628.25,242.27C636.363,237.843 644.117,232.807 651.51,227.16C652.163,226.44 653.127,226.413 654.4,227.08C657.92,228.927 660.84,230.623 663.16,232.17C670.06,236.76 676.39,239.88 683.18,243.74C684.367,244.413 688.607,246.687 695.9,250.56C700.153,252.813 704.277,255.297 708.27,258.01C709.51,258.85 711.91,260.017 715.47,261.51Z" style="fill:rgb(14,22,23);fill-rule:nonzero;"/>
    </g>
    <g transform="matrix(1,0,0,1,-304.545,-222.476)">
        <path d="M710.06,265.65C708.38,265.797 706.777,266.677 705.25,268.29C700.343,270.423 695.623,272.88 691.09,275.66C684.95,279.42 680.85,281.857 678.79,282.97C672.27,286.503 665.827,290.1 659.46,293.76C655.513,294.087 652.59,293.957 650.69,293.37C648.25,292.617 645.763,292.003 643.23,291.53C641.617,290.91 640.023,290.167 638.45,289.3C633.683,286.673 628.223,283.82 622.07,280.74C617.45,278.42 612.12,274.51 608.12,272.86C601.37,270.08 597.44,268.94 593.39,264.69C593.137,264.43 593.16,264.197 593.46,263.99C598.25,260.65 603.56,257.53 608.99,254.8C611.143,253.72 613.183,252.5 615.11,251.14C619.017,248.373 624.03,245.287 630.15,241.88C637.78,237.64 644.42,232.95 651.48,228.64C652.525,228.001 653.841,227.985 654.9,228.6L712.96,262.11C713.001,262.134 713.04,262.161 713.076,262.193C713.382,262.459 713.411,262.934 713.14,263.244C713.11,263.279 713.076,263.311 713.04,263.34L710.06,265.65Z" style="fill:rgb(118,128,129);fill-rule:nonzero;"/>
    </g>
    <g transform="matrix(1,0,0,1,-304.545,-222.476)">
        <path d="M439.17,342.47C438.817,342.337 438.49,342.327 438.19,342.44C437.877,342.56 437.747,342.453 437.8,342.12C438.12,340.02 437.19,338.61 436.98,336.53C436.913,335.937 436.837,334.43 436.75,332.01C436.43,323.117 436.463,307.88 436.85,286.3C436.93,281.687 436.743,277.15 436.29,272.69C436.287,272.657 436.281,272.625 436.273,272.594C436.182,272.232 435.814,272.008 435.457,272.097C435.424,272.106 435.392,272.117 435.36,272.13C424.133,276.87 413.363,282.587 403.05,289.28C393.943,293.513 385.273,298.52 377.04,304.3C376.287,304.827 375.903,305.483 375.89,306.27C375.7,321.17 374.72,339.97 375.98,357.23C376.62,366.02 376.52,372.83 376.27,380.44C376.257,380.833 376.42,380.93 376.76,380.73C384.213,376.437 391.917,371.807 399.87,366.84C402.58,365.14 405.38,363.93 408.3,362.74C409.06,362.147 409.86,361.66 410.7,361.28C411.887,360.74 412.71,360.313 413.17,360C414.78,358.92 416.73,357.34 418.47,356.57C420.67,355.603 422.493,354.42 423.94,353.02C424.727,352.247 425.783,351.677 427.11,351.31C427.997,351.057 429.107,350.513 430.44,349.68C430.469,349.662 430.499,349.645 430.53,349.629C431.025,349.381 431.623,349.557 431.854,350.018C431.867,350.045 431.879,350.072 431.89,350.1C431.91,350.153 431.88,350.36 431.8,350.72C430.013,352.167 428.85,353.033 428.31,353.32C422.41,356.407 418.04,358.863 415.2,360.69C412.213,362.61 409.613,364.143 407.4,365.29C402.907,367.63 400.25,369.087 399.43,369.66C397.403,371.067 394.393,372.993 390.4,375.44C385.4,378.5 380.08,381.11 375.93,385.3C375.672,385.557 375.272,385.607 374.97,385.42C361.79,377.37 348.5,370.13 334.32,361.87C325.74,356.87 317.72,352.19 309.23,349.64C308.897,349.54 308.793,349.327 308.92,349C310.39,345.25 310.13,340.22 310.25,336.5C310.67,323 310.957,303.417 311.11,277.75C311.13,275.143 310.75,272.537 309.97,269.93C309.826,269.451 310.063,268.934 310.52,268.73C313.42,267.44 316.5,265.84 319.03,264.19C331.783,255.843 345,247.85 358.68,240.21C362.48,238.083 367.323,234.56 373.21,229.64C373.463,229.427 373.73,229.41 374.01,229.59C387.51,238.457 396.177,243.923 400.01,245.99C408.59,250.623 418.423,256.047 429.51,262.26C433.13,264.287 436.25,266.237 438.87,268.11C439.143,268.31 439.237,268.573 439.15,268.9C438.53,271.32 438.11,272.39 438.1,274.36C438.013,288.327 437.993,302.29 438.04,316.25C438.067,325.003 438.443,333.743 439.17,342.47ZM325.46,260.92C320.787,263.64 316.983,266.357 314.05,269.07C313.786,269.314 313.636,269.657 313.636,270.017C313.636,270.39 313.798,270.745 314.08,270.99C316.193,272.837 318.457,274.357 320.87,275.55C336.67,283.357 351.263,290.9 364.65,298.18C367.723,299.853 370.84,301.72 374,303.78C374.664,304.216 375.528,304.208 376.18,303.76C378.82,301.95 382.68,299.02 385.63,297.5C390.54,294.96 394.73,292.29 400.67,289.1C412.45,282.77 423.06,276.56 433.68,270.97C434.61,270.48 436.23,270.14 437.12,269.25C437.245,269.125 437.315,268.955 437.315,268.778C437.315,268.547 437.195,268.332 437,268.21C434.12,266.41 431.25,265.1 428.17,263.17C420.71,258.48 411.61,253.92 405.71,250.53C398.51,246.39 385.11,238.96 375.28,231.89C374.233,231.137 373.233,231.197 372.28,232.07C370.527,233.683 368.72,235.263 366.86,236.81C365.507,237.93 363.497,239.22 360.83,240.68C355.65,243.52 345.95,248.947 331.73,256.96C329.7,258.11 327.87,259.52 325.46,260.92Z" style="fill:rgb(14,22,23);fill-rule:nonzero;"/>
    </g>
    <g transform="matrix(1,0,0,1,-304.545,-222.476)">
        <path d="M325.46,260.92C327.87,259.52 329.7,258.11 331.73,256.96C345.95,248.947 355.65,243.52 360.83,240.68C363.497,239.22 365.507,237.93 366.86,236.81C368.72,235.263 370.527,233.683 372.28,232.07C373.233,231.197 374.233,231.137 375.28,231.89C385.11,238.96 398.51,246.39 405.71,250.53C411.61,253.92 420.71,258.48 428.17,263.17C431.25,265.1 434.12,266.41 437,268.21C437.195,268.332 437.315,268.547 437.315,268.778C437.315,268.955 437.245,269.125 437.12,269.25C436.23,270.14 434.61,270.48 433.68,270.97C423.06,276.56 412.45,282.77 400.67,289.1C394.73,292.29 390.54,294.96 385.63,297.5C382.68,299.02 378.82,301.95 376.18,303.76C375.528,304.208 374.664,304.216 374,303.78C370.84,301.72 367.723,299.853 364.65,298.18C351.263,290.9 336.67,283.357 320.87,275.55C318.457,274.357 316.193,272.837 314.08,270.99C313.798,270.745 313.636,270.39 313.636,270.017C313.636,269.657 313.786,269.314 314.05,269.07C316.983,266.357 320.787,263.64 325.46,260.92Z" style="fill:rgb(61,66,65);fill-rule:nonzero;"/>
    </g>
    <g transform="matrix(1,0,0,1,-304.545,-222.476)">
        <path d="M714.81,271.46L715,338.84C715,339.18 714.863,339.45 714.59,339.65C714.203,339.93 713.673,340.157 713,340.33C713.513,337.75 713.71,334.88 713.59,331.72C713.143,320.013 712.927,304.76 712.94,285.96C712.94,281.8 712.327,275.51 711.1,267.09C711.053,266.763 710.883,266.673 710.59,266.82L706.47,268.8C706.43,268.14 706.023,267.97 705.25,268.29C706.777,266.677 708.38,265.797 710.06,265.65C710.52,266.37 711.5,266.083 713,264.79C713.087,264.716 713.197,264.675 713.311,264.675C713.561,264.675 713.772,264.871 713.79,265.12C713.923,267.32 714.043,269.333 714.15,271.16C714.157,271.227 714.137,271.447 714.09,271.82C714.077,271.987 714.097,272.14 714.15,272.28C714.27,272.6 714.34,272.59 714.36,272.25C714.38,271.85 714.53,271.587 714.81,271.46Z" style="fill:rgb(72,80,81);fill-rule:nonzero;"/>
    </g>
    <g transform="matrix(1,0,0,1,-304.545,-222.476)">
        <path d="M713,340.33C706.18,343.83 699.19,347.08 692.99,351.41C688.55,354.517 685.153,356.813 682.8,358.3C673.953,363.9 666.32,368.46 659.9,371.98C658.26,372.88 656.487,373.943 654.58,375.17C654.113,372.303 653.91,369.43 653.97,366.55C654.07,361.51 654.107,358.64 654.08,357.94C653.773,349.107 653.72,341.207 653.92,334.24C654.313,320.333 654.243,307.753 653.71,296.5L656.94,295.22C656.713,295.567 657.037,295.717 657.91,295.67C658.23,295.65 658.543,295.55 658.85,295.37C665.483,291.423 672.213,287.65 679.04,284.05C680.593,283.23 684.117,281.193 689.61,277.94C692.663,276.127 696.26,274.203 700.4,272.17C701.347,271.703 703.37,270.58 706.47,268.8L710.59,266.82C710.883,266.673 711.053,266.763 711.1,267.09C712.327,275.51 712.94,281.8 712.94,285.96C712.927,304.76 713.143,320.013 713.59,331.72C713.71,334.88 713.513,337.75 713,340.33Z" style="fill:rgb(118,128,129);fill-rule:nonzero;"/>
    </g>
    <g transform="matrix(1,0,0,1,-304.545,-222.476)">
        <path d="M705.25,268.29C706.023,267.97 706.43,268.14 706.47,268.8C703.37,270.58 701.347,271.703 700.4,272.17C696.26,274.203 692.663,276.127 689.61,277.94C684.117,281.193 680.593,283.23 679.04,284.05C672.213,287.65 665.483,291.423 658.85,295.37C658.543,295.55 658.23,295.65 657.91,295.67C657.037,295.717 656.713,295.567 656.94,295.22L659.46,293.76C665.827,290.1 672.27,286.503 678.79,282.97C680.85,281.857 684.95,279.42 691.09,275.66C695.623,272.88 700.343,270.423 705.25,268.29Z" style="fill:rgb(61,66,65);fill-rule:nonzero;"/>
    </g>
    <g transform="matrix(1,0,0,1,-304.545,-222.476)">
        <path d="M439.17,342.47C439.737,343.397 440.09,344.327 440.23,345.26C440.277,345.593 440.147,345.823 439.84,345.95C436.887,347.157 434.207,348.747 431.8,350.72C431.88,350.36 431.91,350.153 431.89,350.1C431.879,350.072 431.867,350.045 431.854,350.018C431.623,349.557 431.025,349.381 430.53,349.629C430.499,349.645 430.469,349.662 430.44,349.68C429.107,350.513 427.997,351.057 427.11,351.31C425.783,351.677 424.727,352.247 423.94,353.02C422.493,354.42 420.67,355.603 418.47,356.57C416.73,357.34 414.78,358.92 413.17,360C412.71,360.313 411.887,360.74 410.7,361.28C409.86,361.66 409.06,362.147 408.3,362.74C407.94,358.593 407.757,355.99 407.75,354.93C407.73,337.33 406.16,323.29 403.59,304.8C403.117,301.373 402.937,296.2 403.05,289.28C413.363,282.587 424.133,276.87 435.36,272.13C435.392,272.117 435.424,272.106 435.457,272.097C435.814,272.008 436.182,272.232 436.273,272.594C436.281,272.625 436.287,272.657 436.29,272.69C436.743,277.15 436.93,281.687 436.85,286.3C436.463,307.88 436.43,323.117 436.75,332.01C436.837,334.43 436.913,335.937 436.98,336.53C437.19,338.61 438.12,340.02 437.8,342.12C437.747,342.453 437.877,342.56 438.19,342.44C438.49,342.327 438.817,342.337 439.17,342.47Z" style="fill:rgb(37,45,46);fill-rule:nonzero;"/>
    </g>
    <g transform="matrix(1,0,0,1,-304.545,-222.476)">
        <path d="M403.05,289.28C402.937,296.2 403.117,301.373 403.59,304.8C406.16,323.29 407.73,337.33 407.75,354.93C407.757,355.99 407.94,358.593 408.3,362.74C405.38,363.93 402.58,365.14 399.87,366.84C391.917,371.807 384.213,376.437 376.76,380.73C376.42,380.93 376.257,380.833 376.27,380.44C376.52,372.83 376.62,366.02 375.98,357.23C374.72,339.97 375.7,321.17 375.89,306.27C375.903,305.483 376.287,304.827 377.04,304.3C385.273,298.52 393.943,293.513 403.05,289.28Z" style="fill:rgb(61,66,65);fill-rule:nonzero;"/>
    </g>
    <g transform="matrix(1,0,0,1,-304.545,-222.476)">
        <path d="M659.46,293.76L656.94,295.22L653.71,296.5L643.23,291.53C645.763,292.003 648.25,292.617 650.69,293.37C652.59,293.957 655.513,294.087 659.46,293.76Z" style="fill:rgb(177,179,178);fill-rule:nonzero;"/>
    </g>
    <g transform="matrix(1,0,0,1,-304.545,-222.476)">
        <path d="M585.29,363.41C584.663,361.823 583.91,360.757 583.03,360.21C575.88,355.76 568.85,350.37 562.43,346.3C550.35,338.633 539.917,331.89 531.13,326.07C526.99,323.323 522.873,321.063 518.78,319.29C516.753,318.41 514.713,318.597 512.66,319.85C508.78,322.223 504.973,324.857 501.24,327.75C500.253,328.517 499.037,329.253 497.59,329.96C495.71,330.88 494.47,331.593 493.87,332.1C492.343,333.393 490.3,334.813 487.74,336.36C486.447,337.147 483.983,338.837 480.35,341.43C477.883,343.19 475.36,344.79 472.78,346.23C466.68,349.623 463.163,351.71 462.23,352.49C460.17,354.197 455.63,357.737 448.61,363.11C446.883,364.437 447.163,366.253 449.45,368.56L442.09,364.11C441.73,363.89 441.737,363.683 442.11,363.49C445.92,361.44 450.36,359.33 454.13,356.93C461.103,352.477 469.847,346.81 480.36,339.93C488.99,334.28 498.15,327.53 507.91,321.16C510.53,319.453 512.637,317.68 514.23,315.84C514.457,315.587 514.72,315.54 515.02,315.7C523.4,320.093 529.06,323.287 532,325.28C549.787,337.38 567.897,349.25 586.33,360.89C586.581,361.047 586.734,361.323 586.734,361.619C586.734,361.849 586.643,362.069 586.48,362.23L585.29,363.41Z" style="fill:rgb(14,22,23);fill-rule:nonzero;"/>
    </g>
    <g transform="matrix(1,0,0,1,-304.545,-222.476)">
        <path d="M585.29,363.41C584.997,363.89 584.543,364.317 583.93,364.69C578.6,367.91 572.53,372.38 568.98,374.69C559.03,381.15 552.22,386.03 543.22,390.52C534.62,394.82 527.63,399.68 519.71,404.45C518.36,405.27 517.56,405.72 515.98,404.98C514.753,404.4 513.883,403.953 513.37,403.64C503.59,397.65 493.39,392.57 483.06,386.24C479.007,383.753 474.953,381.393 470.9,379.16C471.187,378.213 470.866,377.296 468.87,376.68C467.74,376.331 459.14,372.417 454.92,371.03L449.45,368.56C447.163,366.253 444.668,366.332 445.625,364.782C450.27,357.26 460.17,354.197 462.23,352.49C463.163,351.71 466.68,349.623 472.78,346.23C475.36,344.79 477.883,343.19 480.35,341.43C483.983,338.837 486.447,337.147 487.74,336.36C490.3,334.813 492.343,333.393 493.87,332.1C494.47,331.593 495.71,330.88 497.59,329.96C499.037,329.253 500.253,328.517 501.24,327.75C504.973,324.857 508.78,322.223 512.66,319.85C514.713,318.597 516.753,318.41 518.78,319.29C522.873,321.063 526.99,323.323 531.13,326.07C539.917,331.89 550.35,338.633 562.43,346.3C568.85,350.37 575.88,355.76 583.03,360.21C583.91,360.757 584.663,361.823 585.29,363.41Z" style="fill:rgb(72,80,81);fill-rule:nonzero;"/>
    </g>
    <g transform="matrix(1,0,0,1,-304.545,-222.476)">
        <path d="M715.43,446.41L650.56,484.59C649.872,484.996 649.009,484.989 648.32,484.57C640.74,479.963 635.51,476.783 632.63,475.03C624.77,470.24 614.62,465.61 605.65,460.88C603.2,459.59 601.91,458.3 600,457.4C599.327,457.077 598.959,456.331 599.11,455.6C599.7,452.71 600.07,450.26 600.07,447.48C600.057,426.12 600.09,406.377 600.17,388.25C600.17,386.4 600.61,384.1 600.52,382C600.387,378.907 600.48,375.83 600.8,372.77C601.74,372.663 602.59,372.22 603.35,371.44L606.74,373.92C606.773,373.94 606.787,373.973 606.78,374.02C606.76,374.107 606.71,374.18 606.63,374.24C606.625,374.244 606.62,374.249 606.616,374.254C606.597,374.28 606.598,374.315 606.62,374.332C606.626,374.336 606.633,374.339 606.64,374.34C607.527,374.62 608.767,375.227 610.36,376.16C613.48,378 619.36,381.81 624.19,383.73C627.51,385.05 631.13,386.17 634.14,387.66C639.307,390.22 644.253,392.46 648.98,394.38C650.72,395.08 652.12,395.35 653.96,394.51C662.04,390.843 667.657,388.027 670.81,386.06C676.53,382.5 683.76,378.12 690,373.64C693.187,371.347 695.207,369.99 696.06,369.57C700.693,367.29 705.293,364.85 709.86,362.25L714.48,360.25C714.534,360.227 714.593,360.215 714.651,360.215C714.893,360.215 715.091,360.414 715.091,360.655C715.091,360.667 715.091,360.678 715.09,360.69C714.37,369.78 714.97,379.62 714.93,393.03C714.89,403.357 714.893,410.02 714.94,413.02C715.06,421.36 715.123,429.777 715.13,438.27C715.13,439.03 715.32,440.363 715.7,442.27C716.007,443.81 715.917,445.19 715.43,446.41Z" style="fill:rgb(252,228,0);fill-rule:nonzero;"/>
    </g>
    <g transform="matrix(1,0,0,1,-304.545,-222.476)">
        <path d="M603.35,371.44C602.59,372.22 601.74,372.663 600.8,372.77C600.547,371.997 600.623,371.39 601.03,370.95C601.27,370.69 601.56,370.603 601.9,370.69C602.38,370.817 602.863,371.067 603.35,371.44Z" style="fill:rgb(252,228,0);fill-rule:nonzero;"/>
    </g>
    <g transform="matrix(1,0,0,1,-304.545,-222.476)">
        <path d="M309.65,451.2C310.343,431.9 310.527,412.593 310.2,393.28C310.087,386.633 310.027,379.977 310.02,373.31C310.02,372.543 309.983,372.05 309.91,371.83C309.503,370.65 309.807,370.337 310.82,370.89L374.36,405.78C374.72,405.976 375.272,405.891 375.78,405.56C388.313,397.267 401.847,388.96 416.38,380.64C423.967,376.3 428.537,373.583 430.09,372.49C430.37,372.297 430.563,372.36 430.67,372.68C431.71,375.92 431.01,379.52 430.98,382.27C430.567,420.71 430.303,444.623 430.19,454.01C430.16,455.96 430.11,457.07 430.43,458.65C430.863,460.757 431.077,462.497 431.07,463.87C431.07,464.197 430.907,464.37 430.58,464.39C425.54,464.8 424.18,465.52 420.28,467.62C419.333,468.133 418.003,468.707 416.29,469.34C414.043,470.167 411.7,471.32 409.26,472.8C392.967,482.68 382.613,489.32 378.2,492.72C377.407,493.333 376.71,493.96 376.11,494.6C375.903,494.824 375.55,494.846 375.31,494.65C373.337,493.01 371.233,491.497 369,490.11C366.113,488.323 350.773,479.64 322.98,464.06C317.853,461.187 313.207,458.98 309.04,457.44C308.747,457.333 308.627,457.127 308.68,456.82L309.65,451.2ZM377.67,490.11C378.58,487.09 381.23,487.08 383.56,485.99C385.52,485.083 386.827,484.46 387.48,484.12C388.99,483.34 390.77,481.83 392.21,481.2C395.09,479.92 396.76,478.16 399.57,476.63C400.543,476.097 401.84,475.327 403.46,474.32C408.513,471.18 411.43,469.467 412.21,469.18C416.017,467.813 419.923,466.2 423.93,464.34C425.56,463.59 427.25,463.54 428.94,463.08C429.427,462.945 429.739,462.46 429.66,461.96C429.35,460.13 428.93,457.84 428.91,455.67C428.723,438.997 428.647,427.96 428.68,422.56C428.707,417.507 428.86,412.143 429.14,406.47C429.367,401.797 429.567,396.43 429.74,390.37C429.873,385.963 429.513,382.453 428.66,379.84C428.56,379.527 428.34,379.377 428,379.39C423.67,379.63 420.31,381.63 415.71,383.58C413.55,384.493 411.483,385.61 409.51,386.93C406.317,389.063 403.043,391.057 399.69,392.91C394.43,395.803 391.087,397.67 389.66,398.51C384.873,401.33 380.087,404.06 375.3,406.7C374.824,406.96 374.55,407.487 374.61,408.03C375.09,412.437 375.323,415.78 375.31,418.06C375.223,429.927 375.22,442.77 375.3,456.59C375.34,464.29 376.47,472.57 376.02,480.49C375.83,483.72 376.79,486.71 376.63,489.5C376.617,489.73 376.738,489.949 376.94,490.06L377.31,490.26C377.347,490.28 377.388,490.291 377.43,490.291C377.541,490.291 377.639,490.217 377.67,490.11Z" style="fill:rgb(14,22,23);fill-rule:nonzero;"/>
    </g>
    <g transform="matrix(1,0,0,1,-304.545,-222.476)">
        <path d="M470.9,379.16L454.92,371.03C459.14,372.417 463.213,374.05 467.14,375.93C467.207,375.963 467.783,376.213 468.87,376.68C470.51,377.387 471.187,378.213 470.9,379.16Z" style="fill:rgb(37,45,46);fill-rule:nonzero;"/>
    </g>
    <g transform="matrix(1,0,0,1,-304.545,-222.476)">
        <path d="M377.67,490.11C377.639,490.217 377.541,490.291 377.43,490.291C377.388,490.291 377.347,490.28 377.31,490.26L376.94,490.06C376.738,489.949 376.617,489.73 376.63,489.5C376.79,486.71 375.83,483.72 376.02,480.49C376.47,472.57 375.34,464.29 375.3,456.59C375.22,442.77 375.223,429.927 375.31,418.06C375.323,415.78 375.09,412.437 374.61,408.03C374.55,407.487 374.824,406.96 375.3,406.7C380.087,404.06 384.873,401.33 389.66,398.51C391.087,397.67 394.43,395.803 399.69,392.91C403.043,391.057 406.317,389.063 409.51,386.93C411.483,385.61 413.55,384.493 415.71,383.58C420.31,381.63 423.67,379.63 428,379.39C428.34,379.377 428.56,379.527 428.66,379.84C429.513,382.453 429.873,385.963 429.74,390.37C429.567,396.43 429.367,401.797 429.14,406.47C428.86,412.143 428.707,417.507 428.68,422.56C428.647,427.96 428.723,438.997 428.91,455.67C428.93,457.84 429.35,460.13 429.66,461.96C429.739,462.46 429.427,462.945 428.94,463.08C427.25,463.54 425.56,463.59 423.93,464.34C419.923,466.2 416.017,467.813 412.21,469.18C411.43,469.467 408.513,471.18 403.46,474.32C401.84,475.327 400.543,476.097 399.57,476.63C396.76,478.16 395.09,479.92 392.21,481.2C390.77,481.83 388.99,483.34 387.48,484.12C386.827,484.46 385.52,485.083 383.56,485.99C381.23,487.08 378.58,487.09 377.67,490.11Z" style="fill:rgb(37,45,46);fill-rule:nonzero;"/>
    </g>
    <g transform="matrix(1,0,0,1,-304.545,-222.476)">
        <path d="M523.71,507.69C522.19,507.543 520.703,507.993 519.25,509.04C518.963,509.247 518.807,509.173 518.78,508.82C518.307,501.48 518.077,494.043 518.09,486.51C518.123,471.117 517.953,456.5 517.58,442.66C517.507,440.033 517.523,437.093 517.63,433.84C517.737,430.68 517.797,427.74 517.81,425.02C519.883,423.273 521.89,421.947 523.83,421.04C531.16,417.61 537.8,414.18 545.06,409.41C554.207,403.39 564.547,397.123 576.08,390.61C577.953,389.55 580.447,387.803 583.56,385.37C583.82,385.163 583.977,385.223 584.03,385.55C584.623,389.397 584.92,391.797 584.92,392.75C584.94,406.74 585.94,420.01 585.94,433.31C585.947,446.043 586.457,457.4 587.47,467.38C587.503,467.72 587.41,468.017 587.19,468.27C586.043,469.61 584.64,470.687 582.98,471.5C572.94,476.46 567.55,479.16 560.12,484.83C553.19,490.11 545.78,494.96 539.88,498.88C537.42,500.513 532.03,503.45 523.71,507.69Z" style="fill:rgb(118,128,129);fill-rule:nonzero;"/>
    </g>
    <g transform="matrix(1,0,0,1,-304.545,-222.476)">
        <path d="M517.81,425.02C517.797,427.74 517.737,430.68 517.63,433.84C517.523,437.093 517.507,440.033 517.58,442.66C517.953,456.5 518.123,471.117 518.09,486.51C518.077,494.043 518.307,501.48 518.78,508.82C518.807,509.173 518.963,509.247 519.25,509.04C520.703,507.993 522.19,507.543 523.71,507.69C520.53,508.983 518.177,510.667 516.65,512.74C516.436,513.035 516.092,513.211 515.727,513.211C515.457,513.211 515.196,513.115 514.99,512.94C511.93,510.38 508.623,508.15 505.07,506.25C496.48,501.67 488.48,496.86 479.15,491.62C472.61,487.95 466.47,483.04 459.9,479.43C453.947,476.157 449.727,473.763 447.24,472.25C446.953,472.077 446.817,471.823 446.83,471.49C447.603,456.11 447.887,444.78 447.68,437.5C447.087,416.593 446.84,399.677 446.94,386.75C446.944,386.489 447.159,386.277 447.42,386.277C447.516,386.277 447.61,386.306 447.69,386.36C452.783,389.9 458.83,393.533 465.83,397.26C476.257,402.813 483.827,406.957 488.54,409.69C494.38,413.077 504.137,418.187 517.81,425.02Z" style="fill:rgb(14,22,23);fill-rule:nonzero;"/>
    </g>
    <g transform="matrix(1,0,0,1,-304.545,-222.476)">
        <path d="M714.81,465.63C714.47,492.17 714.66,518.68 715.38,545.16C715.387,545.5 715.273,545.793 715.04,546.04C714.46,546.627 713.697,547.007 712.75,547.18L714.03,545.39C714.217,545.123 714.307,544.827 714.3,544.5C713.67,522.48 713.66,501.14 713.65,477.49C713.65,476.79 713.36,475.92 713.4,475.32C713.44,474.727 713.363,474.21 713.17,473.77C712.603,472.483 712.64,470.94 713.28,469.14C713.487,468.573 713.343,468.46 712.85,468.8C708.81,471.6 704.43,474.103 699.71,476.31C691.82,480 684.94,486.65 679.27,490.03C670.797,495.09 662.487,500.133 654.34,505.16C653.58,505.633 653.2,506.31 653.2,507.19L653.47,580.25C653.47,580.25 653.47,580.251 653.47,580.251C653.47,580.273 653.488,580.291 653.51,580.291C653.513,580.291 653.517,580.291 653.52,580.29C654.453,580.083 655.31,580.083 656.09,580.29C654.85,580.763 654.113,581.21 653.88,581.63C652.447,584.237 650.99,585.667 649.51,585.92L644.73,583.3C635.19,576.533 628.243,572.133 623.89,570.1C612.05,564.56 602.593,560.3 595.52,557.32C594.713,556.98 593.517,556.707 591.93,556.5C591.557,556.453 591.45,556.257 591.61,555.91C591.81,555.47 591.917,555.167 591.93,555C592.237,549.233 592.39,545.317 592.39,543.25C592.403,513.337 592.293,494.213 592.06,485.88C591.913,480.627 591.907,477.547 592.04,476.64C592.044,476.615 592.048,476.59 592.054,476.566C592.165,476.068 592.609,475.737 593.037,475.833C593.059,475.838 593.079,475.843 593.1,475.85C593.873,476.11 595.783,476.913 598.83,478.26C604.423,480.74 617.5,487.407 638.06,498.26C642.113,500.4 646.123,502.617 650.09,504.91C650.377,505.077 650.687,505.137 651.02,505.09C652.44,504.89 653.903,504.34 655.41,503.44C664.237,498.447 671.713,493.997 677.84,490.09C680.853,488.17 684.187,485.817 687.84,483.03C693.48,478.74 697.2,476.66 704.1,473.1C707.487,471.347 711.057,468.857 714.81,465.63Z" style="fill:rgb(14,22,23);fill-rule:nonzero;"/>
    </g>
    <g transform="matrix(1,0,0,1,-304.545,-222.476)">
        <path d="M712.75,547.18C712.583,547.573 712.05,547.987 711.15,548.42C704.75,551.493 698.537,554.893 692.51,558.62C680.48,566.05 668.32,573.23 656.09,580.29C655.31,580.083 654.453,580.083 653.52,580.29C653.517,580.291 653.513,580.291 653.51,580.291C653.488,580.291 653.47,580.273 653.47,580.251C653.47,580.251 653.47,580.25 653.47,580.25L653.2,507.19C653.2,506.31 653.58,505.633 654.34,505.16C662.487,500.133 670.797,495.09 679.27,490.03C684.94,486.65 691.82,480 699.71,476.31C704.43,474.103 708.81,471.6 712.85,468.8C713.343,468.46 713.487,468.573 713.28,469.14C712.64,470.94 712.603,472.483 713.17,473.77C713.363,474.21 713.44,474.727 713.4,475.32C713.36,475.92 713.65,476.79 713.65,477.49C713.66,501.14 713.67,522.48 714.3,544.5C714.307,544.827 714.217,545.123 714.03,545.39L712.75,547.18Z" style="fill:rgb(118,128,129);fill-rule:nonzero;"/>
    </g>
    <g transform="matrix(1,0,0,1,-304.545,-222.476)">
        <path d="M308.99,562.12C309.13,559.93 309.79,557.7 309.83,555.61C310.08,543.23 310.34,531.24 310.17,518.47C310.017,507.55 309.937,496.627 309.93,485.7L310.24,479.36C310.26,478.947 310.45,478.84 310.81,479.04L373.67,513.56C374.286,513.896 375.04,513.853 375.61,513.45C380.3,510.08 384.55,507.38 390.25,504.36C396.62,500.99 402.94,496.68 408.05,493.73C422.77,485.263 430.483,480.827 431.19,480.42C432.757,479.507 434.343,478.807 435.95,478.32C436.007,478.303 436.064,478.289 436.122,478.279C436.954,478.129 437.76,478.686 437.909,479.512C437.919,479.571 437.926,479.63 437.93,479.69C438.437,488.09 438.4,496.58 437.82,505.16C437.333,512.427 437.087,518.997 437.08,524.87C437.07,541.95 436.67,548.2 438.07,559.74C438.158,560.454 437.773,561.148 437.12,561.45C423.973,567.457 411.493,574.547 399.68,582.72C396.527,584.907 393.467,586.723 390.5,588.17C386.093,590.323 381.383,593.143 376.37,596.63C376.103,596.81 375.813,596.857 375.5,596.77C374.173,596.403 373.1,595.98 372.28,595.5C364.36,590.907 356.913,586.693 349.94,582.86C349.893,582.833 345.393,580.267 336.44,575.16C327.667,570.153 318.517,565.807 308.99,562.12ZM433.78,560.8C434.747,560.86 435.443,560.553 435.87,559.88C436.057,559.58 436.157,559.253 436.17,558.9C436.28,555.93 435.61,553.06 435.62,549.65C435.687,532.91 435.813,520.783 436,513.27C436.08,509.983 436.37,506.06 436.87,501.5C437.09,499.46 437.127,496.13 436.98,491.51C436.88,488.15 435.937,485.72 434.15,484.22C433.87,483.98 433.55,483.903 433.19,483.99C427.39,485.297 423.23,486.883 420.71,488.75C419.73,489.477 417.383,491.137 413.67,493.73C412.163,494.783 410.26,495.73 407.96,496.57C404.03,498.01 401.01,500.87 397.56,502.65C393.087,504.97 387.833,508.017 381.8,511.79C379.68,513.12 377.44,513.93 375.49,515.33C375.21,515.53 375.09,515.803 375.13,516.15C375.823,522.01 376.143,526.377 376.09,529.25C375.737,548.983 375.88,569.437 376.52,590.61C376.541,591.339 377.141,591.93 377.87,591.94C378.68,591.95 379.3,592.01 380.15,591.58C382.55,590.373 384.947,589.157 387.34,587.93C388.61,587.27 389.69,586.05 391.27,585.55C393.04,584.99 394.71,584.38 396.17,582.96C397.77,581.42 400.13,580.63 401.61,579.71C405.823,577.083 409.97,574.503 414.05,571.97C416.457,570.477 418.957,569.087 421.55,567.8C425.923,565.633 428.487,564.36 429.24,563.98C430.74,563.24 431.58,562.15 432.91,561.08C433.154,560.881 433.464,560.781 433.78,560.8Z" style="fill:rgb(14,22,23);fill-rule:nonzero;"/>
    </g>
    <g transform="matrix(1,0,0,1,-304.545,-222.476)">
        <path d="M432.91,561.08C431.58,562.15 430.74,563.24 429.24,563.98C428.487,564.36 425.923,565.633 421.55,567.8C418.957,569.087 416.457,570.477 414.05,571.97C409.97,574.503 405.823,577.083 401.61,579.71C400.13,580.63 397.77,581.42 396.17,582.96C394.71,584.38 393.04,584.99 391.27,585.55C389.69,586.05 388.61,587.27 387.34,587.93C384.947,589.157 382.55,590.373 380.15,591.58C379.3,592.01 378.68,591.95 377.87,591.94C377.141,591.93 376.541,591.339 376.52,590.61C375.88,569.437 375.737,548.983 376.09,529.25C376.143,526.377 375.823,522.01 375.13,516.15C375.09,515.803 375.21,515.53 375.49,515.33C377.44,513.93 379.68,513.12 381.8,511.79C387.833,508.017 393.087,504.97 397.56,502.65C401.01,500.87 404.03,498.01 407.96,496.57C410.26,495.73 412.163,494.783 413.67,493.73C417.383,491.137 419.73,489.477 420.71,488.75C423.23,486.883 427.39,485.297 433.19,483.99C433.55,483.903 433.87,483.98 434.15,484.22C435.937,485.72 436.88,488.15 436.98,491.51C437.127,496.13 437.09,499.46 436.87,501.5C436.37,506.06 436.08,509.983 436,513.27C435.813,520.783 435.687,532.91 435.62,549.65C435.61,553.06 436.28,555.93 436.17,558.9C436.157,559.253 436.057,559.58 435.87,559.88C435.443,560.553 434.747,560.86 433.78,560.8C433.464,560.781 433.154,560.881 432.91,561.08Z" style="fill:rgb(37,45,46);fill-rule:nonzero;"/>
    </g>
    <g transform="matrix(1,0,0,1,-304.545,-222.476)">
        <path d="M577.51,507.03L575.32,500.38C575.227,500.087 575.04,500 574.76,500.12C570.127,502.1 566.143,504.26 562.81,506.6C556.5,511.03 548.07,516.05 542.66,519.78C535.32,524.84 527.47,530.88 518.96,534.62C518.296,534.912 517.883,535.59 517.93,536.31C518.037,537.943 518.087,539.6 518.08,541.28C518.053,553.587 517.903,568.16 517.63,585C517.443,596.327 517.62,607.68 518.16,619.06C517.867,620.387 517.073,621.183 515.78,621.45C515.453,621.517 515.143,621.463 514.85,621.29C506.1,616.18 496.79,611.23 488.74,606.38C478.08,599.97 470.05,596.26 457.49,589.73C455.883,588.897 454.287,588.303 452.7,587.95L452.79,518.54L452.36,497.35C452.36,497.339 452.36,497.328 452.36,497.318C452.36,496.742 452.833,496.268 453.41,496.268C453.558,496.268 453.705,496.299 453.84,496.36C454.173,496.507 454.773,496.9 455.64,497.54C458.66,499.767 460.61,501.133 461.49,501.64C469.397,506.18 478.287,511.597 488.16,517.89C494.33,521.82 500.07,524.38 506.98,528.01C508.073,528.583 511.147,530.49 516.2,533.73C516.402,533.859 516.658,533.862 516.86,533.74C523,529.97 528.79,527.26 535.35,522.94C552.6,511.58 565.47,503.36 575.79,494.98C575.853,494.927 575.925,494.886 576.002,494.857C576.387,494.712 576.825,494.914 576.972,495.304C577,495.38 577.016,495.459 577.02,495.54L577.51,507.03Z" style="fill:rgb(14,22,23);fill-rule:nonzero;"/>
    </g>
    <g transform="matrix(1,0,0,1,-304.545,-222.476)">
        <path d="M577.51,507.03C577.643,511.617 577.62,516.333 577.44,521.18C577.2,527.82 577.12,532.533 577.2,535.32C577.49,545.57 576.95,555.56 577.51,566.08C577.9,573.43 577.34,578.32 579.11,582.88C579.363,583.533 579.183,584.027 578.57,584.36C574.523,586.587 567.42,590.447 557.26,595.94C544.43,602.87 531.2,611.16 518.16,619.06C517.62,607.68 517.443,596.327 517.63,585C517.903,568.16 518.053,553.587 518.08,541.28C518.087,539.6 518.037,537.943 517.93,536.31C517.883,535.59 518.296,534.912 518.96,534.62C527.47,530.88 535.32,524.84 542.66,519.78C548.07,516.05 556.5,511.03 562.81,506.6C566.143,504.26 570.127,502.1 574.76,500.12C575.04,500 575.227,500.087 575.32,500.38L577.51,507.03Z" style="fill:rgb(72,80,81);fill-rule:nonzero;"/>
    </g>
</svg>
